<svg xmlns="http://www.w3.org/2000/svg" width="96" height="96" viewBox="0 0 96 96">
  <g id="appointments" transform="translate(-408 -704)">
    <rect id="Rectangle_25" data-name="Rectangle 25" width="96" height="96" transform="translate(408 704)" fill="none"/>
    <g id="Group_72" data-name="Group 72" transform="translate(-359.648 -237.208)">
      <path id="Path_96" data-name="Path 96" d="M777.592,1028.358a1.947,1.947,0,0,1-1.944-1.944V956.1a1.946,1.946,0,0,1,1.944-1.944h7.588V951.1a1.937,1.937,0,0,1,1.9-1.9h0a1.961,1.961,0,0,1,1.983,1.9v3.049h10.175V951.1a1.937,1.937,0,0,1,1.9-1.9h0a1.961,1.961,0,0,1,1.983,1.9v3.049H813.3V951.1a1.937,1.937,0,0,1,1.9-1.9h0a1.961,1.961,0,0,1,1.983,1.9v3.049h10.175V951.1a1.937,1.937,0,0,1,1.9-1.9h0a1.961,1.961,0,0,1,1.983,1.9v3.049H841.43V951.1a1.937,1.937,0,0,1,1.9-1.9h0a1.961,1.961,0,0,1,1.983,1.9v3.049H852.9a1.946,1.946,0,0,1,1.945,1.944v70.311a1.946,1.946,0,0,1-1.945,1.944Zm1.945-3.886h71.424V972.108H779.537Zm0-56.25h71.426V958.046h-5.644v2.744a1.944,1.944,0,1,1-3.888,0v-2.744H831.256v2.744a1.944,1.944,0,0,1-3.888,0v-2.744H817.193v2.744a1.944,1.944,0,0,1-3.888,0v-2.744H803.13v2.744a1.944,1.944,0,0,1-3.888,0v-2.744H789.067v2.744a1.944,1.944,0,0,1-3.888,0v-2.744h-5.642Z" fill="#13213d"/>
      <rect id="Rectangle_64" data-name="Rectangle 64" width="9" height="9" transform="translate(829.648 984.208)" fill="#fbad18"/>
      <path id="Path_97" data-name="Path 97" d="M791.812,995.546a1.945,1.945,0,0,1-1.945-1.943v-9.375a1.946,1.946,0,0,1,1.945-1.944h9.375a1.945,1.945,0,0,1,1.943,1.944V993.6a1.945,1.945,0,0,1-1.943,1.943Zm1.943-3.887h5.487v-5.488h-5.488Z" fill="#13213d"/>
      <path id="Path_98" data-name="Path 98" d="M829.312,995.546a1.945,1.945,0,0,1-1.945-1.943v-9.375a1.946,1.946,0,0,1,1.945-1.944h9.375a1.945,1.945,0,0,1,1.943,1.944V993.6a1.945,1.945,0,0,1-1.943,1.943Zm1.943-3.887h5.487v-5.488h-5.488Z" fill="#13213d"/>
      <path id="Path_99" data-name="Path 99" d="M810.562,1014.14a1.946,1.946,0,0,1-1.945-1.944v-9.375a1.945,1.945,0,0,1,1.945-1.943h9.375a1.945,1.945,0,0,1,1.943,1.943v9.375a1.945,1.945,0,0,1-1.943,1.944Zm1.943-3.887h5.487v-5.488h-5.488Z" fill="#13213d"/>
      <path id="Path_100" data-name="Path 100" d="M810.562,995.546a1.945,1.945,0,0,1-1.945-1.943v-9.375a1.946,1.946,0,0,1,1.945-1.944h9.375a1.945,1.945,0,0,1,1.943,1.944V993.6a1.945,1.945,0,0,1-1.943,1.943Zm1.943-3.887h5.487v-5.488h-5.488Z" fill="#13213d"/>
      <path id="Path_101" data-name="Path 101" d="M829.312,1014.14a1.946,1.946,0,0,1-1.945-1.944v-9.375a1.945,1.945,0,0,1,1.945-1.943h9.375a1.945,1.945,0,0,1,1.943,1.943v9.375a1.945,1.945,0,0,1-1.943,1.944Zm1.943-3.887h5.487v-5.488h-5.488Z" fill="#13213d"/>
      <path id="Path_102" data-name="Path 102" d="M794.932,1014.137a1.951,1.951,0,0,1-1.228-.439l-3.124-2.563a1.987,1.987,0,0,1-.748-1.389,1.944,1.944,0,0,1,3.205-1.622l1.623,1.331,5.018-6.174a1.942,1.942,0,1,1,3.012,2.451l-6.25,7.69a1.943,1.943,0,0,1-1.508.715Z" fill="#db1b5d"/>
    </g>
  </g>
</svg>
