<svg xmlns="http://www.w3.org/2000/svg" width="20" height="20" viewBox="0 0 20 20">
  <g id="collaborate_hover" transform="translate(-6844 -129)">
    <rect id="Rectangle_48" data-name="Rectangle 48" width="20" height="20" transform="translate(6844 129)" fill="none" opacity="0.242"/>
    <g id="collaborate_hover-2" data-name="collaborate_hover" transform="translate(6845 120.504)">
      <g id="Group_30" data-name="Group 30" transform="translate(0 9.496)">
        <path id="Path_57" data-name="Path 57" d="M16.986,20.408l-.024-.013c.018-.216.028-.435.028-.656a7.692,7.692,0,0,0-4.424-6.956c0-.009,0-.019,0-.028a3.259,3.259,0,1,0-6.518,0c0,.009,0,.019,0,.028a7.692,7.692,0,0,0-4.424,6.956c0,.221.01.44.028.656l-.024.013a3.259,3.259,0,1,0,3.259,5.645l.026-.016a7.665,7.665,0,0,0,8.786,0l.026.016a3.259,3.259,0,1,0,3.259-5.645ZM9.308,10.893a1.862,1.862,0,1,1-1.862,1.862A1.864,1.864,0,0,1,9.308,10.893ZM5.058,23.713a1.864,1.864,0,0,1-1.8,1.381,1.863,1.863,0,0,1-.006-3.726h0a1.87,1.87,0,0,1,1.616.932A1.85,1.85,0,0,1,5.058,23.713Zm7.6,1.343a6.273,6.273,0,0,1-6.7,0,3.26,3.26,0,0,0-2.7-5.085h0c-.076,0-.153,0-.229.008,0-.08-.005-.16-.005-.241A6.291,6.291,0,0,1,6.376,14.18a3.26,3.26,0,0,0,5.863,0,6.291,6.291,0,0,1,3.354,5.559c0,.081,0,.161-.005.241-.076-.005-.153-.008-.229-.008h0a3.26,3.26,0,0,0-2.7,5.085Zm4.313-.894a1.862,1.862,0,1,1-1.61-2.794h0a1.863,1.863,0,0,1,1.61,2.794Z" transform="translate(0 -9.496)" fill="#db1b5d"/>
      </g>
    </g>
  </g>
</svg>
