<svg xmlns="http://www.w3.org/2000/svg" width="20" height="20" viewBox="0 0 20 20">
  <g id="dashboard" transform="translate(-6886 186)">
    <rect id="Rectangle_51" data-name="Rectangle 51" width="20" height="20" transform="translate(6886 -186)" fill="none" opacity="0.242"/>
    <path id="Path_81" data-name="Path 81" d="M321.146,240.3a.749.749,0,0,0-.061-.182.736.736,0,0,0-.2-.223,2.309,2.309,0,0,0-.664-.6L314.65,236.1a2.35,2.35,0,0,0-2.34,0l-5.577,3.185a2.328,2.328,0,0,0-.681.625.766.766,0,0,0-.18.2.748.748,0,0,0-.057.169,2.335,2.335,0,0,0-.258,1.036V247.7a2.349,2.349,0,0,0,1.177,2.029l5.577,3.186a2.3,2.3,0,0,0,.792.264.736.736,0,0,0,.376.115.724.724,0,0,0,.373-.114,2.3,2.3,0,0,0,.8-.263l5.582-3.19a2.351,2.351,0,0,0,1.168-2.028v-6.377A2.315,2.315,0,0,0,321.146,240.3Zm-8.089-2.894a.84.84,0,0,1,.421-.112.852.852,0,0,1,.425.114l5.216,2.981-5.64,3.262-5.643-3.264Zm-5.578,11.02a.847.847,0,0,1-.422-.728v-6.028l5.672,3.281v6.475Zm12.005,0-5.255,3v-6.479l5.671-3.281v6.028A.842.842,0,0,1,319.484,248.421Z" transform="translate(6582.443 -420.79)" fill="#fff"/>
  </g>
</svg>
