<?xml version="1.0" encoding="UTF-8"?> <svg xmlns="http://www.w3.org/2000/svg" id="Layer_1" data-name="Layer 1" viewBox="0 0 81.64 65.09"><defs><style> .cls-1 { fill: #db1b5d; } .cls-2 { fill: #fbad18; } .cls-3 { fill: #fff; } .cls-4 { fill: #f4763c; } </style></defs><g><path class="cls-1" d="M26.72,3.4A5.21,5.21,0,0,1,32,11.54a5.21,5.21,0,0,1-9-5.23A5.19,5.19,0,0,1,26.72,3.4Z"></path><path class="cls-1" d="M22.58,15.43h10A14,14,0,0,0,54.81,26.88a18.13,18.13,0,0,1-31.49-6.31A19,19,0,0,1,22.58,15.43Z"></path><path class="cls-2" d="M52.65,3.43a5.2,5.2,0,1,1-1.49.6A5.18,5.18,0,0,1,52.65,3.43Z"></path><path class="cls-2" d="M49.67,15.42h9.17a12.2,12.2,0,0,1-22.15,7.11,8.42,8.42,0,0,0,11.74-2.66A8.61,8.61,0,0,0,49.67,15.42Z"></path><path class="cls-3" d="M6.39,41.49V53a1.21,1.21,0,0,0,.24.74.81.81,0,0,0,.68.33c.4,0,.7-.25.93-.73a4.75,4.75,0,0,0,.32-1.9V51.1c0-.42.08-.67.23-.75a2.11,2.11,0,0,1,.79-.12.93.93,0,0,1,.66.18,1.08,1.08,0,0,1,.18.75,5.36,5.36,0,0,1-1,3.2,3.14,3.14,0,0,1-2.73,1.36,3.93,3.93,0,0,1-3.41-2.09A11,11,0,0,1,2,47.71a14.2,14.2,0,0,1,.68-4.78A7.16,7.16,0,0,1,4.3,40.1a3.36,3.36,0,0,1,2.42-.94,3.42,3.42,0,0,1,2.72,1.15,3.88,3.88,0,0,1,1,2.65,2.47,2.47,0,0,1-.34,1.33,1.09,1.09,0,0,1-1,.55A1.26,1.26,0,0,1,8,44.32,2.18,2.18,0,0,1,7.66,43a3.94,3.94,0,0,1,.07-.77,5.58,5.58,0,0,0,.09-.81.67.67,0,0,0-.22-.52.75.75,0,0,0-.53-.22.64.64,0,0,0-.48.25A.87.87,0,0,0,6.39,41.49Z"></path><path class="cls-3" d="M24.23,44V41.75c0-.63-.25-1-.77-1q-1,0-1.05,1.44a2.66,2.66,0,0,1-.19,1.15,1.44,1.44,0,0,1-.83.59,3.82,3.82,0,0,1-1.38.24c-1,0-1.51-.54-1.51-1.61a2.91,2.91,0,0,1,1.31-2.48,5.74,5.74,0,0,1,3.43-1,7.86,7.86,0,0,1,2.5.38,3.56,3.56,0,0,1,1.77,1.28,3.31,3.31,0,0,1,.67,2V53.64a1.33,1.33,0,0,0,.35.36.62.62,0,0,1,.24.52.84.84,0,0,1-.76,1,4.19,4.19,0,0,1-1.27.17,3.16,3.16,0,0,1-1.54-.34,2.22,2.22,0,0,1-1-1.32,6.6,6.6,0,0,1-1.67,1.37,3,3,0,0,1-1.32.3,2.67,2.67,0,0,1-2.33-1.18,6.89,6.89,0,0,1-.83-3.86A6.62,6.62,0,0,1,18.85,47a6.84,6.84,0,0,1,3-1.91C22.82,44.68,23.61,44.35,24.23,44Zm0,1.55a2.68,2.68,0,0,0-1.6,1.33,13.14,13.14,0,0,0-.26,3.34,8.2,8.2,0,0,0,.21,2.41.74.74,0,0,0,.74.5c.61,0,.91-.5.91-1.52Z"></path><path class="cls-3" d="M40.77,42.49a5.93,5.93,0,0,0,.35-1A4.73,4.73,0,0,1,42,39.55a1.47,1.47,0,0,1,1-.39,1.15,1.15,0,0,1,1.07.68,3.58,3.58,0,0,1,.37,1.7c0,1.46-.42,2.2-1.24,2.2a1.05,1.05,0,0,1-.95-.73q-.2-.42-.42-.42c-.35,0-.53.4-.53,1.18v9.49a.7.7,0,0,0,.42.67.68.68,0,0,1,.41.65v.53a.76.76,0,0,1-.06.37c-.05.05-.17.07-.38.07H37.17c-.3,0-.46-.14-.46-.44v-.65a.44.44,0,0,1,.2-.44.64.64,0,0,0,.4-.62v-12a.65.65,0,0,0-.28-.59.88.88,0,0,1-.36-.27,2.14,2.14,0,0,1-.05-.62c0-.28,0-.46.13-.53a.68.68,0,0,1,.42-.11h3.21a.35.35,0,0,1,.3.13,1.22,1.22,0,0,1,.09.6Z"></path><path class="cls-3" d="M56,47.2v4.86a2.64,2.64,0,0,0,.37,1.51,1.13,1.13,0,0,0,1,.55,1.68,1.68,0,0,0,1.44-.77,3.82,3.82,0,0,0,.58-2.1,1.65,1.65,0,0,1,.13-.85c.08-.1.37-.14.86-.14a1.59,1.59,0,0,1,.82.13c.11.08.17.3.17.65a4.9,4.9,0,0,1-1.19,3.25,3.87,3.87,0,0,1-3.15,1.43,4.68,4.68,0,0,1-3.81-2q-1.58-2-1.57-6.13A11.17,11.17,0,0,1,53,41.31a4.41,4.41,0,0,1,3.8-2.15A3.72,3.72,0,0,1,60.05,41a9,9,0,0,1,1.23,5.13v1.1Zm1.6-1.48V41.79c0-.75-.27-1.12-.8-1.12S56,41,56,41.79v3.93Z"></path><path class="cls-3" d="M75.12,41.14v-2c0-.33-.13-.51-.41-.53a.34.34,0,0,1-.28-.11.75.75,0,0,1-.07-.39v-.44a.47.47,0,0,1,.08-.33.65.65,0,0,1,.34-.06h3.61a.54.54,0,0,1,.39.1,1,1,0,0,1,.09.47V53.58a.66.66,0,0,0,.52.67.34.34,0,0,1,.27.35v.58c0,.25-.11.37-.33.37h-4c-.13,0-.21,0-.23-.07a2.07,2.07,0,0,1,0-.61c0-.07,0-.17,0-.3a3.54,3.54,0,0,1-2.3,1.14q-3.58,0-3.58-7.31,0-5.2,1-6.83A2.84,2.84,0,0,1,72.69,40,3.66,3.66,0,0,1,75.12,41.14Zm0,1.28a1.73,1.73,0,0,0-.85-.32.7.7,0,0,0-.6.35,1.36,1.36,0,0,0-.23.8v9.34a1.14,1.14,0,0,0,.21.71.66.66,0,0,0,.54.29,1,1,0,0,0,.62-.27.72.72,0,0,0,.31-.5Z"></path><path class="cls-4" d="M3.2,58.4h.63v2.15a1.07,1.07,0,0,0,0,.4.4.4,0,0,0,.16.18.52.52,0,0,0,.27.07.51.51,0,0,0,.29-.08.45.45,0,0,0,.17-.19,1.75,1.75,0,0,0,0-.46V58.4h.64v2a2.76,2.76,0,0,1-.06.7,1,1,0,0,1-.22.37,1,1,0,0,1-.36.27,1.37,1.37,0,0,1-.49.09,1.27,1.27,0,0,1-.63-.17,1,1,0,0,1-.39-.42,2.16,2.16,0,0,1-.11-.84Z"></path><path class="cls-4" d="M8,58.4h.61l1.42,2.19V58.4h.63v3.33h-.61L8.67,59.55v2.18H8Z"></path><path class="cls-4" d="M13.31,58.4h.63v2.72h.92v.6H13.31Z"></path><path class="cls-4" d="M17.2,58.4H19V59H17.84v.6H19v.61H17.84v.87H19v.62H17.2Z"></path><path class="cls-4" d="M22.47,58.4h.65l1.28,3.33h-.66L23.48,61H22.13l-.27.69H21.2Zm.33.88-.45,1.14h.89Z"></path><path class="cls-4" d="M28.48,58.85l-.47.41a.66.66,0,0,0-.5-.34.31.31,0,0,0-.2.07.2.2,0,0,0-.07.15.33.33,0,0,0,.05.16,6,6,0,0,0,.46.42,4.23,4.23,0,0,1,.44.38,1.29,1.29,0,0,1,.28.38,1,1,0,0,1,.08.39.87.87,0,0,1-.29.67,1,1,0,0,1-.73.27,1.2,1.2,0,0,1-.62-.17,1.34,1.34,0,0,1-.45-.55l.53-.32c.16.29.34.44.55.44a.42.42,0,0,0,.28-.1.29.29,0,0,0,.11-.21.43.43,0,0,0-.09-.23,2,2,0,0,0-.37-.35,3.47,3.47,0,0,1-.7-.68.92.92,0,0,1-.16-.48.78.78,0,0,1,.27-.59A1,1,0,0,1,28,58.44,1.46,1.46,0,0,1,28.48,58.85Z"></path><path class="cls-4" d="M31,58.4h.64v1.25h1.11V58.4h.64v3.33h-.64V60.27H31.64v1.46H31Z"></path><path class="cls-4" d="M36,58.4h.63v3.33H36Z"></path><path class="cls-4" d="M39.15,58.4h.6l1.43,2.19V58.4h.63v3.33H41.2l-1.42-2.18v2.18h-.64Z"></path><path class="cls-4" d="M47.49,58.94l-.44.44a1.37,1.37,0,0,0-1-.45,1.12,1.12,0,0,0-.83.33,1.09,1.09,0,0,0-.33.78,1.1,1.1,0,0,0,.35.82,1.15,1.15,0,0,0,.84.33,1,1,0,0,0,.56-.14,1,1,0,0,0,.36-.43h-1V60h1.67v.14a1.62,1.62,0,0,1-.23.83,1.52,1.52,0,0,1-.58.6,1.77,1.77,0,0,1-.85.2,2,2,0,0,1-.92-.23,1.64,1.64,0,0,1-.64-.64,1.76,1.76,0,0,1-.24-.9,1.71,1.71,0,0,1,.44-1.15,1.77,1.77,0,0,1,1.35-.59,2.1,2.1,0,0,1,.81.17A1.82,1.82,0,0,1,47.49,58.94Z"></path><path class="cls-4" d="M54.32,58.4H55l1.27,3.33h-.65L55.33,61H54l-.27.69H53Zm.33.88-.45,1.14h.89Z"></path><path class="cls-4" d="M58.59,61.72V58.39h.52a2.42,2.42,0,0,1,.66.06.88.88,0,0,1,.48.29.78.78,0,0,1,.18.51.67.67,0,0,1-.09.34.73.73,0,0,1-.26.29,1.06,1.06,0,0,1,.45.36,1,1,0,0,1,.14.5,1,1,0,0,1-.15.52,1,1,0,0,1-.37.34,1.38,1.38,0,0,1-.63.11ZM59.22,59v.7h.14a.52.52,0,0,0,.34-.1.3.3,0,0,0,.11-.26.29.29,0,0,0-.1-.25.49.49,0,0,0-.33-.09Zm0,1.26v.85h.16a.89.89,0,0,0,.53-.1.34.34,0,0,0,.14-.28.43.43,0,0,0-.16-.34.92.92,0,0,0-.54-.13Z"></path><path class="cls-4" d="M63.08,58.4h.63v3.33h-.63Z"></path><path class="cls-4" d="M66.27,58.4h.63v2.72h.93v.6H66.27Z"></path><path class="cls-4" d="M70.11,58.4h.63v3.33h-.63Z"></path><path class="cls-4" d="M73,58.4h1.84V59h-.61v2.7h-.64V59H73Z"></path><path class="cls-4" d="M76.87,58.4h.68l.62,1.19.62-1.19h.67l-1,1.88v1.44h-.64V60.28Z"></path></g></svg> 