<svg xmlns="http://www.w3.org/2000/svg" width="96" height="96" viewBox="0 0 96 96">
  <g id="goal" transform="translate(-1157 -705)">
    <rect id="Rectangle_25" data-name="Rectangle 25" width="96" height="96" transform="translate(1157 705)" fill="none"/>
    <g id="Group_66" data-name="Group 66">
      <path id="Path_91" data-name="Path 91" d="M8205.064,478.271v9.155h9.322l7.963-7.207-7.963-1.948v-8.44Z" transform="translate(-6985 250)" fill="#db1b5d"/>
      <circle id="Ellipse_8" data-name="Ellipse 8" cx="10" cy="10" r="10" transform="translate(1194 744)" fill="#fbad18"/>
      <path id="goal-2" data-name="goal" d="M69.494,17.935,73.132,14.3a2.2,2.2,0,0,0-1.369-3.743l-6.748-.569-.569-6.748A2.2,2.2,0,0,0,60.7,1.869L57.065,5.506A37.5,37.5,0,0,0,10.983,64.016,37.5,37.5,0,0,0,69.494,17.935Zm-8.7-5.731A2.2,2.2,0,0,0,62.8,14.209l3.882.327-5.255,5.255-5.731-.484-.484-5.731,5.255-5.255ZM44.971,37.5a7.477,7.477,0,1,1-3.977-6.6l-5.047,5.047a2.2,2.2,0,1,0,3.107,3.107L44.1,34.007A7.42,7.42,0,0,1,44.971,37.5ZM44.187,27.7a11.878,11.878,0,1,0,3.108,3.108l6.274-6.274a20.679,20.679,0,1,1-3.108-3.108Zm16.722,33.2A33.105,33.105,0,1,1,14.091,14.091,33.12,33.12,0,0,1,53.858,8.712L51.38,11.191a2.2,2.2,0,0,0-.643,1.5c0,.08,0,.16.007.241l.3,3.506a25.069,25.069,0,1,0,7.526,7.526l3.506.3c.062,0,.124.007.185.007l.031,0c.029,0,.058,0,.087,0,.047,0,.1-.006.142-.011l.088-.013c.046-.007.092-.016.138-.026l.086-.022c.045-.012.089-.026.133-.041l.085-.03c.043-.017.085-.035.128-.055.027-.012.054-.024.081-.038.042-.022.084-.046.124-.07l.073-.043c.043-.029.085-.06.127-.091.019-.015.039-.028.058-.043a2.178,2.178,0,0,0,.172-.154l2.478-2.478a33.12,33.12,0,0,1-5.379,39.767Zm0,0" transform="translate(1167 716)" fill="#13213d"/>
    </g>
  </g>
</svg>
