<svg xmlns="http://www.w3.org/2000/svg" width="96" height="96" viewBox="0 0 96 96">
    <defs>
        <style>
            .cls-3{fill:#13213d}
        </style>
    </defs>
    <g id="ic_invoice" transform="translate(-1157 -705)">
        <g id="Group_150">
            <path id="Rectangle_25" fill="none" d="M0 0H96V96H0z" transform="translate(1157 705)"/>
            <g id="Group_138" transform="translate(-457.453 .164)">
                <path id="Path_123" fill="#db1b5d" d="M329.9 635.234v16.587h17.6z" transform="translate(1339.891 85.09)"/>
                <g id="invoice" transform="translate(1635.453 716.836)">
                    <g id="Group_139" transform="translate(9.098 9.098)">
                        <g id="Group_138-2">
                            <path id="Path_117" d="M137.1 79.921c-2.465 0-4.549-1.56-4.549-3.412s2.081-3.409 4.549-3.409a5.117 5.117 0 0 1 3.248 1.083 2.276 2.276 0 1 0 2.875-3.53 9.349 9.349 0 0 0-3.848-1.815v-2.564a2.274 2.274 0 1 0-4.549 0v2.556c-3.912.892-6.823 3.98-6.823 7.678 0 4.39 4.08 7.96 9.1 7.96 2.465 0 4.549 1.56 4.549 3.412s-2.083 3.412-4.549 3.412a5.117 5.117 0 0 1-3.248-1.083 2.276 2.276 0 0 0-2.875 3.53 9.414 9.414 0 0 0 3.848 1.82v2.556a2.274 2.274 0 1 0 4.549 0V95.56c3.912-.892 6.823-3.98 6.823-7.678 0-4.39-4.085-7.961-9.1-7.961z" class="cls-3" transform="translate(-128 -64)"/>
                        </g>
                    </g>
                    <g id="Group_141">
                        <g id="Group_140">
                            <path id="Path_118" d="M118.408 19.6a2.25 2.25 0 0 0-.491-.737L99.726.669A2.307 2.307 0 0 0 98.116 0H68.549A4.556 4.556 0 0 0 64 4.549v63.683a4.556 4.556 0 0 0 4.549 4.549h45.488a4.556 4.556 0 0 0 4.549-4.549V20.47a2.27 2.27 0 0 0-.178-.87zM100.39 7.765l10.43 10.43h-10.43zm13.646 62.742v-2.275H68.549V4.549h27.293V18.2a4.556 4.556 0 0 0 4.549 4.549h13.646v45.483z" class="cls-3" transform="translate(-64)"/>
                        </g>
                    </g>
                    <g id="Group_143" transform="translate(31.842 31.842)">
                        <g id="Group_142">
                            <path id="Path_119" d="M299.372 224h-9.1a2.274 2.274 0 0 0 0 4.549h9.1a2.274 2.274 0 1 0 0-4.549z" class="cls-3" transform="translate(-288 -224)"/>
                        </g>
                    </g>
                    <g id="Group_145" transform="translate(31.842 40.939)">
                        <g id="Group_144">
                            <path id="Path_120" d="M299.372 288h-9.1a2.274 2.274 0 0 0 0 4.549h9.1a2.274 2.274 0 1 0 0-4.549z" class="cls-3" transform="translate(-288 -288)"/>
                        </g>
                    </g>
                    <g id="Group_147" transform="translate(9.098 50.037)">
                        <g id="Group_146">
                            <path id="Path_121" d="M162.116 352h-31.842a2.274 2.274 0 0 0 0 4.549h31.842a2.274 2.274 0 0 0 0-4.549z" class="cls-3" transform="translate(-128 -352)"/>
                        </g>
                    </g>
                    <g id="Group_149" transform="translate(9.098 59.134)">
                        <g id="Group_148">
                            <path id="Path_122" d="M162.116 416h-31.842a2.274 2.274 0 0 0 0 4.549h31.842a2.274 2.274 0 0 0 0-4.549z" class="cls-3" transform="translate(-128 -416)"/>
                        </g>
                    </g>
                </g>
            </g>
        </g>
    </g>
</svg>
