<svg xmlns="http://www.w3.org/2000/svg" width="20" height="20" viewBox="0 0 20 20">
  <g id="invoice_hover" transform="translate(-40 -360)">
    <g id="Group_29" data-name="Group 29" transform="translate(-794.944 268.71)">
      <path id="Path_46" data-name="Path 46" d="M852.541,96.606a1.32,1.32,0,0,0-.151-.219l-3.971-4.632a1.3,1.3,0,0,0-.391-.311,1.321,1.321,0,0,0-.62-.154h-8.456a2.009,2.009,0,0,0-2.007,2.007v15.986a2.009,2.009,0,0,0,2.007,2.007H850.7a2.009,2.009,0,0,0,2.007-2.007V97.254A1.327,1.327,0,0,0,852.541,96.606Zm-4.159-2.837,2.137,2.493h-2.137Zm2.99,15.515a.669.669,0,0,1-.668.668H838.951a.669.669,0,0,1-.668-.668V93.3a.669.669,0,0,1,.668-.668h8.092v3.8a1.172,1.172,0,0,0,1.17,1.17h3.158Z" transform="translate(0)" fill="#db1b5d"/>
      <path id="Path_47" data-name="Path 47" d="M869.776,119.741h3.632a.669.669,0,0,0,0-1.339h-3.632a.669.669,0,1,0,0,1.339Z" transform="translate(-28.851 -23.359)" fill="#db1b5d"/>
      <path id="Path_48" data-name="Path 48" d="M869.943,168.791v-1.932a.961.961,0,0,1,.717.542c.028.046.05.081.064.106a1.042,1.042,0,0,0,.3.366.707.707,0,0,0,.388.1.643.643,0,0,0,.467-.175.608.608,0,0,0,.18-.457,1.422,1.422,0,0,0-.608-1.125,2.534,2.534,0,0,0-1.51-.531v-.356a.334.334,0,0,0-.08-.242.311.311,0,0,0-.234-.082.319.319,0,0,0-.239.082.335.335,0,0,0-.079.242v.356a2.379,2.379,0,0,0-1.654.621,2.074,2.074,0,0,0-.618,1.566,1.833,1.833,0,0,0,.52,1.38,3.919,3.919,0,0,0,1.752.818v2.2a1.122,1.122,0,0,1-.489-.21,1.708,1.708,0,0,1-.393-.523,1.4,1.4,0,0,0-.337-.457.618.618,0,0,0-.38-.117.677.677,0,0,0-.5.194.712.712,0,0,0-.191.523,1.464,1.464,0,0,0,.634,1.192,2.974,2.974,0,0,0,1.659.56v.7a.335.335,0,0,0,.079.242.319.319,0,0,0,.239.082.31.31,0,0,0,.234-.082.334.334,0,0,0,.08-.242v-.685a2.762,2.762,0,0,0,1.762-.7,2.166,2.166,0,0,0,.621-1.622,1.852,1.852,0,0,0-.536-1.385A4.666,4.666,0,0,0,869.943,168.791Zm-.632-.159a1.446,1.446,0,0,1-.642-.353.771.771,0,0,1-.207-.549.865.865,0,0,1,.218-.618,1.014,1.014,0,0,1,.632-.284Zm1.3,3.318a1.04,1.04,0,0,1-.664.313v-2a1.489,1.489,0,0,1,.679.39.9.9,0,0,1,.212.619A.98.98,0,0,1,870.607,171.95Z" transform="translate(-26.978 -66.121)" fill="#db1b5d"/>
    </g>
    <rect id="Rectangle_40" data-name="Rectangle 40" width="20" height="20" transform="translate(40 360)" fill="none"/>
  </g>
</svg>
