<?xml version="1.0" encoding="UTF-8"?> <svg xmlns="http://www.w3.org/2000/svg" id="Layer_1" data-name="Layer 1" viewBox="0 0 396.09 268.88"><defs><style> .cls-1 { fill: #db1b5d; } .cls-2 { fill: #fbad18; } .cls-3 { fill: #13213d; } </style></defs><g><path class="cls-1" d="M128.07,4.86A26,26,0,0,1,151,11.18c9.47,8.39,11,24,3.43,34.07-6.81,9.89-20.95,13.62-31.78,8.39a25.86,25.86,0,0,1,5.46-48.78Z"></path><path class="cls-1" d="M107.52,64.55h49.8A69.68,69.68,0,0,0,267.5,121.38,90,90,0,0,1,111.21,90.12,92.61,92.61,0,0,1,107.52,64.55Z"></path><path class="cls-2" d="M256.79,5c12.27-3.09,25.92,4.22,30.11,16.14,4.47,11.31-.46,25.21-11,31.24A25.85,25.85,0,1,1,256.79,5Z"></path><path class="cls-2" d="M242,64.53h45.51a60.59,60.59,0,0,1-110,35.27,42.4,42.4,0,0,0,27.91,6.36,41.88,41.88,0,0,0,30.38-19.59A42.53,42.53,0,0,0,242,64.53Z"></path><path class="cls-3" d="M27.13,193.92V251a5.9,5.9,0,0,0,1.22,3.73,4,4,0,0,0,3.35,1.58q2.93,0,4.57-3.63a23.28,23.28,0,0,0,1.63-9.41l-.06-1.65c0-2.08.38-3.32,1.15-3.71a9,9,0,0,1,3.89-.59,4.72,4.72,0,0,1,3.31.88c.59.6.88,1.83.88,3.72a26.75,26.75,0,0,1-4.78,15.89q-4.74,6.74-13.51,6.74-10.3,0-16.92-10.36t-6.6-29.4q0-14.27,3.36-23.71T16.78,187a16.63,16.63,0,0,1,12-4.63q8.55,0,13.53,5.68a19.44,19.44,0,0,1,5,13.14,12.41,12.41,0,0,1-1.66,6.6,5.44,5.44,0,0,1-5,2.72A6.14,6.14,0,0,1,35.3,208a10.82,10.82,0,0,1-1.86-6.5,24.45,24.45,0,0,1,.36-3.82,23.46,23.46,0,0,0,.46-4,3.43,3.43,0,0,0-1.12-2.6A3.6,3.6,0,0,0,30.55,190a3,3,0,0,0-2.42,1.24A4.22,4.22,0,0,0,27.13,193.92Z"></path><path class="cls-3" d="M115.72,206.61V195.23q0-4.72-3.84-4.71-5.23,0-5.24,7.13a12.91,12.91,0,0,1-.92,5.71c-.6,1.14-2,2.12-4.13,2.92a19.13,19.13,0,0,1-6.87,1.21q-7.48,0-7.48-8,0-7.54,6.52-12.32t17-4.77a38,38,0,0,1,12.44,1.88,17.82,17.82,0,0,1,8.81,6.36,16.27,16.27,0,0,1,3.31,9.84v53.79a6.93,6.93,0,0,0,1.77,1.77,3,3,0,0,1,1.18,2.59,6.18,6.18,0,0,1-.65,3.33,6,6,0,0,1-3.15,1.8,20.24,20.24,0,0,1-6.28.82,15.74,15.74,0,0,1-7.66-1.67q-3.07-1.68-4.78-6.57-5.15,5.3-8.32,6.81a15.26,15.26,0,0,1-6.55,1.47,13.3,13.3,0,0,1-11.57-5.84q-4.11-5.83-4.11-19.18T89,221.09q3.83-5.15,15-9.51Q111.06,208.85,115.72,206.61Zm0,7.67q-6.66,2.91-8,6.62t-1.3,16.54q0,9.48,1.06,12a3.72,3.72,0,0,0,3.65,2.51q4.55,0,4.55-7.55Z"></path><path class="cls-3" d="M197.81,198.89a32,32,0,0,0,1.72-5q2.25-7.65,4.39-9.61a6.88,6.88,0,0,1,4.75-1.94,5.71,5.71,0,0,1,5.33,3.36,17.68,17.68,0,0,1,1.8,8.43q0,10.91-6.13,10.91-3.07,0-4.72-3.6c-.66-1.38-1.35-2.07-2.06-2.07-1.78,0-2.65,2-2.65,5.84v47.12a3.5,3.5,0,0,0,2,3.3,3.38,3.38,0,0,1,2.08,3.24v2.64a3.22,3.22,0,0,1-.34,1.8c-.2.26-.82.38-1.84.38H180c-1.54,0-2.29-.73-2.29-2.18v-3.24a2.22,2.22,0,0,1,1-2.18,3.24,3.24,0,0,0,2-3.06V193.69a3.13,3.13,0,0,0-1.42-2.92,5,5,0,0,1-1.77-1.38,10.71,10.71,0,0,1-.23-3c0-1.42.21-2.31.62-2.66a3.22,3.22,0,0,1,2.09-.53h15.92a1.73,1.73,0,0,1,1.54.62,6.73,6.73,0,0,1,.41,3Z"></path><path class="cls-3" d="M273.11,222.29v24.12a13,13,0,0,0,1.86,7.48,5.56,5.56,0,0,0,4.75,2.72,8.37,8.37,0,0,0,7.16-3.81q2.67-3.8,2.85-10.4c0-2.36.27-3.78.68-4.25s1.84-.71,4.28-.71c2.12,0,3.46.22,4,.66s.85,1.5.85,3.24a24.5,24.5,0,0,1-5.9,16.16,19.33,19.33,0,0,1-15.62,7.06q-11.13,0-18.93-10.1T251.34,224q0-20.34,7.2-31t18.86-10.64q10,0,16.1,9t6.11,25.44v5.48Zm8-7.37V195.45q0-5.55-3.95-5.55c-2.63,0-4,1.85-4,5.55v19.47Z"></path><path class="cls-3" d="M368.31,192.18v-9.82c0-1.66-.69-2.53-2-2.64a1.73,1.73,0,0,1-1.39-.53,3.74,3.74,0,0,1-.34-1.95v-2.19a2.35,2.35,0,0,1,.36-1.6,3.1,3.1,0,0,1,1.72-.31h17.9a2.71,2.71,0,0,1,2,.51,4,4,0,0,1,.43,2.3v78a3.27,3.27,0,0,0,2.58,3.32,1.68,1.68,0,0,1,1.35,1.74v2.87c0,1.22-.54,1.84-1.64,1.84h-19.6c-.63,0-1-.12-1.15-.37a11.52,11.52,0,0,1-.19-3c0-.35,0-.85.06-1.52q-6.13,5.67-11.4,5.67-17.79,0-17.8-36.31,0-25.83,4.75-33.88t12.38-8.05Q362.08,186.3,368.31,192.18Zm0,6.34a8.83,8.83,0,0,0-4.22-1.57,3.44,3.44,0,0,0-3,1.77,7,7,0,0,0-1.16,3.95V249a5.72,5.72,0,0,0,1.08,3.5,3.17,3.17,0,0,0,2.68,1.43,4.73,4.73,0,0,0,3.06-1.31,3.6,3.6,0,0,0,1.56-2.49Z"></path></g></svg> 