<svg xmlns="http://www.w3.org/2000/svg" width="20" height="20" viewBox="0 0 20 20">
  <g id="logout_hover" transform="translate(-6844 -272)">
    <rect id="Rectangle_49" data-name="Rectangle 49" width="20" height="20" transform="translate(6844 272)" fill="none" opacity="0.242"/>
    <g id="Group_50" data-name="Group 50" transform="translate(6569.727 95.419)">
      <path id="Path_86" data-name="Path 86" d="M281.356,193.581H277.8a1.029,1.029,0,0,1-1.029-1.028V180.109a1.029,1.029,0,0,1,1.029-1.028h3.554a.75.75,0,0,0,0-1.5H277.8a2.531,2.531,0,0,0-2.529,2.528v12.444a2.531,2.531,0,0,0,2.529,2.528h3.554a.75.75,0,0,0,0-1.5Z" fill="#db1b5d"/>
      <path id="Path_87" data-name="Path 87" d="M292.773,186.331h0a.2.2,0,0,0-.005-.026.748.748,0,0,0-.052-.26.77.77,0,0,0-.165-.247l-4.441-4.442a.75.75,0,1,0-1.06,1.061l3.162,3.164h-8.856a.75.75,0,0,0,0,1.5h8.858l-3.164,3.165a.75.75,0,1,0,1.06,1.06l4.444-4.444a.728.728,0,0,0,.043-.065.66.66,0,0,0,.176-.466Z" fill="#db1b5d"/>
    </g>
  </g>
</svg>
