<svg xmlns="http://www.w3.org/2000/svg" width="20" height="20" viewBox="0 0 20 20">
  <g id="myplan_explainer_hover" transform="translate(-6840 140)">
    <g id="Group_61" data-name="Group 61">
      <g id="myplan_explainer_hover-2" data-name="myplan_explainer_hover" transform="translate(6804 -290)">
        <g id="Group_28" data-name="Group 28" transform="translate(37 151)">
          <path id="Path_43" data-name="Path 43" d="M.634,4.5H1.5v8.144a.856.856,0,0,0,.856.856H8.25V15H6.75A2.25,2.25,0,0,0,4.5,17.25h0a.75.75,0,0,0,.75.75h0A.75.75,0,0,0,6,17.25H6a.75.75,0,0,1,.75-.75h1.5v.75A.75.75,0,0,0,9,18H9a.75.75,0,0,0,.75-.75V16.5h1.5a.75.75,0,0,1,.75.75h0a.75.75,0,0,0,.75.75h0a.75.75,0,0,0,.75-.75h0A2.25,2.25,0,0,0,11.25,15H9.75V13.5h5.979a.771.771,0,0,0,.771-.771V4.5h.866A.634.634,0,0,0,18,3.866V.634A.634.634,0,0,0,17.366,0H.634A.634.634,0,0,0,0,.634V3.866A.634.634,0,0,0,.634,4.5ZM14.514,12H3.339A.339.339,0,0,1,3,11.661V5.111A.611.611,0,0,1,3.611,4.5H14.389A.611.611,0,0,1,15,5.111v6.4A.486.486,0,0,1,14.514,12ZM2.25,1.5h13.5a.75.75,0,0,1,.75.75h0a.75.75,0,0,1-.75.75H2.25a.75.75,0,0,1-.75-.75h0A.75.75,0,0,1,2.25,1.5Z" fill="#db1b5d"/>
          <path id="Path_44" data-name="Path 44" d="M96.75,128h6a.75.75,0,0,1,.75.75h0a.75.75,0,0,1-.75.75h-6a.75.75,0,0,1-.75-.75h0A.75.75,0,0,1,96.75,128Z" transform="translate(-91.5 -122)" fill="#db1b5d"/>
          <path id="Path_45" data-name="Path 45" d="M96.75,192H99a.75.75,0,0,1,.75.75h0a.75.75,0,0,1-.75.75H96.75a.75.75,0,0,1-.75-.75h0A.75.75,0,0,1,96.75,192Z" transform="translate(-91.5 -183)" fill="#db1b5d"/>
        </g>
        <rect id="Rectangle_40" data-name="Rectangle 40" width="20" height="20" transform="translate(36 150)" fill="none"/>
      </g>
    </g>
  </g>
</svg>
