<svg xmlns="http://www.w3.org/2000/svg" width="20" height="20" viewBox="0 0 20 20">
  <g id="onboard_service_provider_hover" transform="translate(-42 -462)">
    <g id="Group_31" data-name="Group 31" transform="translate(748.012 464.479)">
      <path id="Path_58" data-name="Path 58" d="M-691.266,17.522c-.427-.11-.862-.2-1.279-.336a4.037,4.037,0,0,1-1.43-.879.508.508,0,0,0-.38-.14q-5.187.005-10.375,0h-.282V-2.478h14.871V8.061c.361.107.707.183,1.033.31a4.691,4.691,0,0,1,3.009,4.805,4.72,4.72,0,0,1-3.981,4.29c-.1.016-.19.036-.284.055Zm-12.392-18.65V14.806h8.549a4.673,4.673,0,0,1,.129-4.263A4.7,4.7,0,0,1-691.5,8.09V-1.129Zm9.461,13.912a3.388,3.388,0,0,0,3.386,3.385,3.4,3.4,0,0,0,3.38-3.371A3.387,3.387,0,0,0-690.808,9.4,3.384,3.384,0,0,0-694.2,12.783Z" fill="#db1b5d"/>
      <path id="Path_59" data-name="Path 59" d="M-645.071,85.617h4.033V89.65h-4.033Zm2.687,1.359h-1.332V88.3h1.332Z" transform="translate(-57.233 -85.346)" fill="#db1b5d"/>
      <path id="Path_60" data-name="Path 60" d="M-635.589,205.528v1.328h-9.446v-1.328Z" transform="translate(-57.267 -199.838)" fill="#db1b5d"/>
      <path id="Path_61" data-name="Path 61" d="M-638.283,265.425v1.328h-6.739v-1.328Z" transform="translate(-57.279 -257.029)" fill="#db1b5d"/>
      <path id="Path_62" data-name="Path 62" d="M-521.186,85.742V87.07h-4.033V85.742Z" transform="translate(-171.669 -85.465)" fill="#db1b5d"/>
      <path id="Path_63" data-name="Path 63" d="M-525.373,146.883v-1.327h4.032v1.327Z" transform="translate(-171.522 -142.576)" fill="#db1b5d"/>
      <path id="Path_64" data-name="Path 64" d="M-645.212,386.473v-1.326h4.033v1.326Z" transform="translate(-57.098 -373.027)" fill="#db1b5d"/>
      <path id="Path_65" data-name="Path 65" d="M-437.347,369.689l-1.9-1.921.913-.916.878.893,1.661-1.923,1.024.882Z" transform="translate(-253.752 -354.576)" fill="#db1b5d"/>
    </g>
    <rect id="Rectangle_41" data-name="Rectangle 41" width="20" height="20" transform="translate(42 462)" fill="none"/>
  </g>
</svg>
