<svg xmlns="http://www.w3.org/2000/svg" width="20" height="20" viewBox="0 0 20 20">
  <g id="reporting_hover" transform="translate(-42 -512)">
    <g id="Group_44" data-name="Group 44" transform="translate(1176.2 695.7)">
      <path id="Path_73" data-name="Path 73" d="M-1117.25-182.7h-13.5a2.456,2.456,0,0,0-2.45,2.45v13.5a2.456,2.456,0,0,0,2.45,2.45h13.5a2.456,2.456,0,0,0,2.45-2.45v-13.5A2.456,2.456,0,0,0-1117.25-182.7Zm-13.5,1.3h13.5a1.154,1.154,0,0,1,1.15,1.15v13.5a1.154,1.154,0,0,1-1.15,1.15h-13.5a1.154,1.154,0,0,1-1.15-1.15v-13.5A1.154,1.154,0,0,1-1130.75-181.4Z" fill="#db1b5d"/>
      <path id="Path_74" data-name="Path 74" d="M-1119.95-175.1h1.8a.652.652,0,0,0,.649-.65.653.653,0,0,0-.65-.65h-1.8a.653.653,0,0,0-.65.65A.651.651,0,0,0-1119.95-175.1Z" fill="#db1b5d"/>
      <path id="Path_75" data-name="Path 75" d="M-1119.95-177.8h1.8a.651.651,0,0,0,.65-.65.651.651,0,0,0-.65-.65h-1.8a.65.65,0,0,0-.65.65A.651.651,0,0,0-1119.95-177.8Z" fill="#db1b5d"/>
      <path id="Path_76" data-name="Path 76" d="M-1119.952-172.4h1.8a.651.651,0,0,0,.65-.65.651.651,0,0,0-.65-.65h-1.8a.651.651,0,0,0-.65.65.645.645,0,0,0,.191.46A.644.644,0,0,0-1119.952-172.4Z" fill="#db1b5d"/>
      <path id="Path_77" data-name="Path 77" d="M-1119.95-169.7h1.8a.652.652,0,0,0,.649-.65.651.651,0,0,0-.65-.65h-1.8a.651.651,0,0,0-.65.65A.651.651,0,0,0-1119.95-169.7Z" fill="#db1b5d"/>
      <path id="Path_78" data-name="Path 78" d="M-1129.85-167h11.7a.652.652,0,0,0,.65-.649.653.653,0,0,0-.65-.651h-11.7a.652.652,0,0,0-.649.65A.651.651,0,0,0-1129.85-167Z" fill="#db1b5d"/>
      <path id="Path_79" data-name="Path 79" d="M-1129.1-171.061a4.681,4.681,0,0,0,3.3,1.361,4.713,4.713,0,0,0,4.7-4.7,4.705,4.705,0,0,0-4.7-4.7h0l-.007,0a4.7,4.7,0,0,0-4.692,4.7,4.681,4.681,0,0,0,1.361,3.3A.346.346,0,0,0-1129.1-171.061Zm3.761-2.879a.65.65,0,0,0,.189-.46v-3.334a3.4,3.4,0,0,1,2.751,3.334,3.4,3.4,0,0,1-3.4,3.4,3.378,3.378,0,0,1-1.9-.581Zm-1.111-3.794v3.065l-2.168,2.168a3.387,3.387,0,0,1-.581-1.9A3.4,3.4,0,0,1-1126.451-177.734Z" fill="#db1b5d"/>
    </g>
    <rect id="Rectangle_42" data-name="Rectangle 42" width="20" height="20" transform="translate(42 512)" fill="none"/>
  </g>
</svg>
