<svg xmlns="http://www.w3.org/2000/svg" width="96" height="96" viewBox="0 0 96 96"><defs><style>.a{fill:none;}.b{fill:#13213d;}.c{fill:#fbad18;}.d{fill:#db1b5d;}</style></defs><g transform="translate(-1070 -213)"><rect class="a" width="96" height="96" transform="translate(1070 213)"/><g transform="translate(1039 220)"><g transform="translate(46)"><path class="b" d="M111.344,0H58.116a1.594,1.594,0,0,0-1.594,1.594V8.268H47.594A1.594,1.594,0,0,0,46,9.861v27.9a1.594,1.594,0,1,0,3.188,0V11.455H99.228V78.413H49.187V52.106a1.594,1.594,0,1,0-3.188,0v27.9A1.594,1.594,0,0,0,47.594,81.6h53.228a1.594,1.594,0,0,0,1.594-1.594V73.333h8.928a1.594,1.594,0,0,0,1.594-1.594V1.594A1.594,1.594,0,0,0,111.344,0ZM109.75,70.145h-7.334V9.861a1.594,1.594,0,0,0-1.594-1.594H59.709V3.188H109.75Z" transform="translate(-46 0)"/><path class="c" d="M47.594,275.128a1.594,1.594,0,1,0-1.127-.467A1.606,1.606,0,0,0,47.594,275.128Z" transform="translate(-46 -228.599)"/><path class="b" d="M105.676,152.538H140.1a1.594,1.594,0,0,0,1.594-1.594V123.532a1.594,1.594,0,0,0-1.594-1.594H105.676a1.594,1.594,0,0,0-1.594,1.594v27.413A1.594,1.594,0,0,0,105.676,152.538Zm1.594-27.413h31.238v24.225H107.269Z" transform="translate(-94.825 -102.504)"/><path class="b" d="M105.676,369.125H140.1a1.594,1.594,0,1,0,0-3.187H105.676a1.594,1.594,0,0,0,0,3.188Z" transform="translate(-94.825 -307.616)"/><path class="b" d="M105.676,425.125H140.1a1.594,1.594,0,1,0,0-3.187H105.676a1.594,1.594,0,0,0,0,3.188Z" transform="translate(-94.825 -354.691)"/><path class="d" d="M186.411,183.466l-6.822,6.822-3.154-3.154a1.594,1.594,0,1,0-2.254,2.254l4.281,4.28a1.594,1.594,0,0,0,2.254,0l7.949-7.949a1.594,1.594,0,1,0-2.254-2.254Z" transform="translate(-153.36 -153.834)"/></g></g></g></svg>