<svg xmlns="http://www.w3.org/2000/svg" width="169.518" height="135.253" viewBox="0 0 169.518 135.253">
  <g id="white_reverse" transform="translate(-960 -493)">
    <g id="Group_9" data-name="Group 9" transform="translate(-319 232)">
      <g id="Group_2" data-name="Group 2" transform="translate(60.961 -1.06)">
        <path id="Path_1" data-name="Path 1" d="M116.608,4.551a8.971,8.971,0,1,0,.018,0Z" transform="translate(1155.413 257.759)" fill="#fff"/>
        <path id="Path_2" data-name="Path 2" d="M107.52,64.55h21.89a30.628,30.628,0,0,0,48.43,24.98,39.559,39.559,0,0,1-68.7-13.74A40.708,40.708,0,0,1,107.52,64.55Z" transform="translate(1155.468 223.997)" fill="#fff"/>
        <path id="Path_3" data-name="Path 3" d="M245.6,4.6a11.362,11.362,0,1,1-8.57,8.9,11.436,11.436,0,0,1,8.57-8.9Z" transform="translate(1083.002 257.769)" fill="#fff"/>
        <path id="Path_4" data-name="Path 4" d="M205.857,64.53h20a26.632,26.632,0,0,1-48.35,15.5,18.637,18.637,0,0,0,12.268,2.8,18.408,18.408,0,0,0,13.354-8.611,18.694,18.694,0,0,0,2.725-9.688Z" transform="translate(1116.242 224.008)" fill="#fff"/>
        <path id="Path_5" data-name="Path 5" d="M14.873,187.443v25.089a2.593,2.593,0,0,0,.536,1.64,1.758,1.758,0,0,0,1.472.694,2.235,2.235,0,0,0,2.009-1.6,10.233,10.233,0,0,0,.716-4.136l-.026-.725c0-.914.167-1.459.505-1.631a3.956,3.956,0,0,1,1.71-.259,2.075,2.075,0,0,1,1.455.387,2.418,2.418,0,0,1,.387,1.635,11.758,11.758,0,0,1-2.1,6.984,6.826,6.826,0,0,1-5.938,2.963q-4.527,0-7.437-4.554t-2.9-12.923A31.441,31.441,0,0,1,6.737,190.59a15.962,15.962,0,0,1,3.587-6.189,7.31,7.31,0,0,1,5.275-2.035,7.5,7.5,0,0,1,5.947,2.5,8.545,8.545,0,0,1,2.2,5.776,5.455,5.455,0,0,1-.73,2.9,2.391,2.391,0,0,1-2.2,1.2,2.7,2.7,0,0,1-2.352-1.1,4.756,4.756,0,0,1-.818-2.857A10.748,10.748,0,0,1,17.8,189.1a10.312,10.312,0,0,0,.2-1.758,1.508,1.508,0,0,0-.492-1.143,1.582,1.582,0,0,0-1.138-.475,1.319,1.319,0,0,0-1.064.545,1.855,1.855,0,0,0-.44,1.178Z" transform="translate(1212.779 157.968)" fill="#fff"/>
        <path id="Path_6" data-name="Path 6" d="M98.615,193.039v-5q0-2.075-1.688-2.07-2.3,0-2.3,3.134a5.675,5.675,0,0,1-.4,2.51,3.251,3.251,0,0,1-1.815,1.283,8.409,8.409,0,0,1-3.02.532q-3.288,0-3.288-3.516a6.439,6.439,0,0,1,2.866-5.415,12.313,12.313,0,0,1,7.472-2.1,16.7,16.7,0,0,1,5.468.826,7.833,7.833,0,0,1,3.872,2.8,7.152,7.152,0,0,1,1.455,4.325v23.643a3.046,3.046,0,0,0,.778.778,1.319,1.319,0,0,1,.519,1.138,2.716,2.716,0,0,1-.286,1.464,2.637,2.637,0,0,1-1.385.791,8.9,8.9,0,0,1-2.76.36,6.918,6.918,0,0,1-3.367-.734,4.964,4.964,0,0,1-2.1-2.888,14.727,14.727,0,0,1-3.657,2.993,6.708,6.708,0,0,1-2.879.646,5.846,5.846,0,0,1-5.086-2.567q-1.807-2.563-1.807-8.431t1.67-8.136q1.683-2.264,6.593-4.18Q96.567,194.023,98.615,193.039Zm0,3.371q-2.927,1.279-3.516,2.91t-.571,7.27a17.685,17.685,0,0,0,.466,5.275,1.635,1.635,0,0,0,1.6,1.1q2,0,2-3.319Z" transform="translate(1167.977 157.951)" fill="#fff"/>
        <path id="Path_7" data-name="Path 7" d="M186.3,189.614a14.066,14.066,0,0,0,.756-2.2q.989-3.363,1.93-4.224a3.024,3.024,0,0,1,2.088-.853,2.51,2.51,0,0,1,2.343,1.477,7.771,7.771,0,0,1,.791,3.705q0,4.8-2.694,4.8a2.271,2.271,0,0,1-2.075-1.582c-.29-.607-.593-.91-.905-.91-.782,0-1.165.879-1.165,2.567V213.1a1.538,1.538,0,0,0,.879,1.451,1.486,1.486,0,0,1,.914,1.424v1.16a1.415,1.415,0,0,1-.149.791c-.088.114-.36.167-.809.167h-9.732c-.677,0-1.007-.321-1.007-.958v-1.424a.976.976,0,0,1,.44-.958,1.424,1.424,0,0,0,.879-1.345V187.328a1.376,1.376,0,0,0-.624-1.283,2.2,2.2,0,0,1-.778-.607,4.708,4.708,0,0,1-.1-1.319c0-.624.092-1.015.273-1.169a1.415,1.415,0,0,1,.919-.233h7a.76.76,0,0,1,.677.273,2.958,2.958,0,0,1,.18,1.319Z" transform="translate(1116.378 157.982)" fill="#fff"/>
        <path id="Path_8" data-name="Path 8" d="M260.909,199.911v10.6a5.714,5.714,0,0,0,.818,3.288,2.444,2.444,0,0,0,2.088,1.2,3.679,3.679,0,0,0,3.147-1.675,8.238,8.238,0,0,0,1.253-4.571,3.548,3.548,0,0,1,.3-1.868c.18-.207.809-.312,1.881-.312a3.286,3.286,0,0,1,1.758.29c.237.193.374.659.374,1.424a10.769,10.769,0,0,1-2.593,7.1,8.5,8.5,0,0,1-6.866,3.1q-4.892,0-8.321-4.439t-3.407-13.389q0-8.94,3.165-13.626a9.59,9.59,0,0,1,8.29-4.677,8.193,8.193,0,0,1,7.077,3.956q2.681,3.956,2.686,11.182v2.409Zm3.516-3.239v-8.558q0-2.439-1.736-2.439c-1.156,0-1.758.813-1.758,2.439v8.558Z" transform="translate(1074.864 157.97)" fill="#fff"/>
        <path id="Path_9" data-name="Path 9" d="M352,181.494v-4.316c0-.73-.3-1.112-.879-1.16a.76.76,0,0,1-.611-.233,1.644,1.644,0,0,1-.149-.857v-.963a1.033,1.033,0,0,1,.158-.7,1.363,1.363,0,0,1,.756-.136h7.868a1.191,1.191,0,0,1,.879.224,1.758,1.758,0,0,1,.189,1.011v34.285a1.437,1.437,0,0,0,1.134,1.459.738.738,0,0,1,.593.765v1.262c0,.536-.237.809-.721.809H352.6c-.277,0-.44-.053-.505-.163a5.062,5.062,0,0,1-.083-1.319c0-.154,0-.374.026-.668q-2.694,2.492-5.011,2.492-7.82,0-7.824-15.96,0-11.354,2.088-14.892t5.442-3.538Q349.257,178.909,352,181.494Zm0,2.787a3.881,3.881,0,0,0-1.855-.69,1.512,1.512,0,0,0-1.319.778,3.076,3.076,0,0,0-.51,1.736v20.364a2.514,2.514,0,0,0,.475,1.538,1.393,1.393,0,0,0,1.178.629,2.079,2.079,0,0,0,1.345-.576,1.582,1.582,0,0,0,.686-1.094Z" transform="translate(1025.623 163.153)" fill="#fff"/>
      </g>
      <path id="Path_11" data-name="Path 11" d="M1.08-10.056H3v6.508a3.376,3.376,0,0,0,.147,1.189,1.184,1.184,0,0,0,.485.557,1.528,1.528,0,0,0,.817.208,1.591,1.591,0,0,0,.872-.232,1.224,1.224,0,0,0,.506-.591,4.4,4.4,0,0,0,.14-1.371v-6.269H7.889v6a8.7,8.7,0,0,1-.171,2.105A2.985,2.985,0,0,1,7.065-.82a3.031,3.031,0,0,1-1.111.81A3.767,3.767,0,0,1,4.491.253a3.538,3.538,0,0,1-1.9-.5A2.923,2.923,0,0,1,1.429-1.507,6.641,6.641,0,0,1,1.08-4.061Zm11,0h1.832l4.313,6.617v-6.617h1.914V0H18.3L13.991-6.6V0H12.077Zm12.31,0H26.3v8.23H29.09V0h-4.7Zm8.126,0H38v1.873H34.413v1.818H38v1.839H34.413V-1.88H38V0H32.513Zm12.3,0H46.75L50.619,0H48.63l-.786-2.071h-4.1L42.922,0H40.933Zm.984,2.666-1.34,3.452h2.673Zm13.54-1.3L57.918-7.437A2.006,2.006,0,0,0,56.4-8.477a.922.922,0,0,0-.615.2.587.587,0,0,0-.239.455.779.779,0,0,0,.171.479,12.987,12.987,0,0,0,1.4,1.292q1.094.916,1.326,1.155a4,4,0,0,1,.824,1.125A2.812,2.812,0,0,1,59.511-2.6a2.69,2.69,0,0,1-.854,2.044,3.114,3.114,0,0,1-2.229.807,3.312,3.312,0,0,1-1.87-.526,4.157,4.157,0,0,1-1.364-1.654L54.8-2.9q.725,1.333,1.668,1.333a1.227,1.227,0,0,0,.827-.287.855.855,0,0,0,.335-.663,1.146,1.146,0,0,0-.253-.684,7.3,7.3,0,0,0-1.114-1.046,11.25,11.25,0,0,1-2.119-2.068,2.63,2.63,0,0,1-.479-1.453,2.377,2.377,0,0,1,.8-1.794,2.761,2.761,0,0,1,1.965-.749,3.1,3.1,0,0,1,1.432.349A5.218,5.218,0,0,1,59.333-8.688ZM63.3-10.056h1.941v3.794H68.6v-3.794h1.935V0H68.6V-4.409H65.238V0H63.3Zm11.353,0h1.9V0h-1.9Zm6.021,0H82.5l4.313,6.617v-6.617h1.914V0H86.89L82.583-6.6V0H80.669Zm21.593,1.641-1.347,1.333a3.98,3.98,0,0,0-2.98-1.354,3.4,3.4,0,0,0-2.485.984,3.229,3.229,0,0,0-1,2.393,3.313,3.313,0,0,0,1.039,2.468,3.532,3.532,0,0,0,2.563,1.012A3.142,3.142,0,0,0,99.723-2a2.934,2.934,0,0,0,1.1-1.306H97.908V-5.1h5.059l.014.424a4.923,4.923,0,0,1-.684,2.5,4.779,4.779,0,0,1-1.771,1.8,5.045,5.045,0,0,1-2.55.622,5.662,5.662,0,0,1-2.792-.68,4.976,4.976,0,0,1-1.941-1.938,5.4,5.4,0,0,1-.714-2.714,5.044,5.044,0,0,1,1.319-3.473,5.2,5.2,0,0,1,4.074-1.757,6.206,6.206,0,0,1,2.454.485A5.628,5.628,0,0,1,102.262-8.415Zm13.374-1.641h1.941L121.447,0h-1.989l-.786-2.071h-4.1L113.749,0H111.76Zm.984,2.666-1.34,3.452h2.673ZM124.89,0V-10.056h1.579a8.173,8.173,0,0,1,2.01.178,2.69,2.69,0,0,1,1.436.889,2.339,2.339,0,0,1,.533,1.531,2.231,2.231,0,0,1-.243,1.042,2.653,2.653,0,0,1-.79.878,3.146,3.146,0,0,1,1.34,1.077,2.722,2.722,0,0,1,.424,1.528,2.848,2.848,0,0,1-.437,1.545,2.8,2.8,0,0,1-1.128,1.042A4.329,4.329,0,0,1,127.707,0ZM126.8-8.23v2.119h.417a1.548,1.548,0,0,0,1.036-.294,1,1,0,0,0,.338-.8.937.937,0,0,0-.321-.749,1.468,1.468,0,0,0-.978-.277Zm0,3.828v2.577h.479a2.949,2.949,0,0,0,1.6-.3A1.015,1.015,0,0,0,129.3-3a1.227,1.227,0,0,0-.485-1.025A2.676,2.676,0,0,0,127.2-4.4Zm8.03-5.653h1.9V0h-1.9Zm6.014,0h1.914v8.23h2.789V0h-4.7Zm7.982,0h1.9V0h-1.9Zm5.023,0h5.558v1.887h-1.832V0h-1.941V-8.169h-1.784Zm8.112,0h2.058L165.9-6.446l1.859-3.609h2.03l-2.939,5.7V0h-1.928V-4.354Z" transform="translate(1278 396)" fill="#fff"/>
    </g>
  </g>
</svg>
